<svg width="163" height="240" viewBox="0 0 163 240" fill="none" xmlns="http://www.w3.org/2000/svg">
<mask id="mask0_101_7" style="mask-type:alpha" maskUnits="userSpaceOnUse" x="0" y="0" width="163" height="240">
<path d="M56.4996 238.481C44.4255 236.765 31.573 233.622 23.6327 230.443L17.1074 227.831L14.6283 220.165C8.05027 199.826 2.76056 168.966 0.846085 139.76C-1.6275 102.025 4.20545 52.9799 15.0453 20.3696L17.0831 14.2391L25.7914 10.6281C52.7428 -0.547885 88.3748 -2.70494 119.576 4.95065C129.111 7.29022 145.19 12.8576 146.662 14.3287C146.82 14.4869 148.531 20.3857 150.463 27.4371C154.456 42.0048 159.174 69.8304 161.157 90.5001C162.819 107.835 162.809 144.787 161.137 159.5C159.223 176.335 153.41 205.152 148.406 222.602C146.749 228.384 146.463 228.575 132.682 233.142C114.985 239.006 78.2894 241.578 56.4996 238.481ZM112.699 229.096C123.467 227.222 136.226 223.828 138.825 222.146C140.588 221.006 146.302 198.061 150.141 176.709C152.858 161.599 153.297 143.845 153.736 122.795C154.323 94.6475 153.035 87.8003 148.962 63.0001C146.379 47.2743 140.84 21.4226 139.876 20.597C138.475 19.3972 124.034 14.3795 116.073 12.3264C108.314 10.3252 103.078 9.74903 88.4417 9.28559C68.3789 8.65032 60.2346 9.48085 42.4216 13.9786C26.2925 18.0512 24.1366 19.3719 21.8285 26.5946C18.8144 36.0262 15.1755 52.7463 12.4377 69.7436C6.14897 108.787 8.86398 164.853 18.9848 204.941C23.6509 223.424 22.0607 221.793 40.4996 227.013C55.596 231.287 93.7789 232.389 112.699 229.096ZM63.9996 225.515C63.1746 225.302 57.7975 224.381 52.0504 223.469C46.3033 222.556 38.6016 220.698 34.9355 219.339L28.2699 216.869L26.0997 209.684C17.7881 182.169 12.8875 135.643 14.8464 102.847C16.817 69.8565 24.679 28.3265 29.7128 24.3174C31.7768 22.6735 43.1021 19.337 54.187 17.1072C76.6339 12.5918 103.471 13.9078 123.951 20.5283L134.945 24.0825L136.004 28.2913C136.587 30.6061 137.913 35.8751 138.951 40.0001C143.325 57.3802 147.778 92.284 148.647 116C149.661 143.694 146.23 173.645 138.521 204.381L135.23 217.5L130.419 219.305C120.857 222.893 104.41 225.119 84.4996 225.52C74.0496 225.73 64.8246 225.728 63.9996 225.515ZM70.9274 200.455C66.8473 179.538 64.0223 157.605 64.0083 146.735C63.9999 140.176 64.0983 139.91 67.2496 137.973C77.8558 131.454 96.1575 132.343 105.858 139.847L108.216 141.672C108.216 141.672 94.9996 209.486 94.9996 210.378C94.9996 212.032 97.4835 212.644 98.3706 211.209C98.6396 210.774 117 142.356 117 140.584C117 137.82 108.594 130.155 102.605 127.458C94.8787 123.978 82.3127 123.273 74.3049 125.872C70.8978 126.977 66.8868 128.683 65.3915 129.663L62.6729 131.444L63.3655 113.698C64.5294 83.8796 67.991 61.4086 73.1158 50.4042C75.1842 45.9626 78.1317 42.2285 83.9771 36.6438C95.6637 25.4785 94.8906 25.2129 78.2429 34.6739C66.061 41.5969 53.3027 47.7917 44.2496 51.1793C41.3621 52.2597 38.9996 53.5614 38.9996 54.0719C38.9996 55.2772 40.2057 55.2424 46.9891 53.8414C53.8805 52.418 57.7715 53.2429 58.5361 56.2894C58.8479 57.5319 58.2063 65.5125 57.1103 74.0242C52.9396 106.415 53.6627 140.787 59.1084 169C62.007 184.017 69.1648 211.373 70.4129 212.205C72.6404 213.688 72.7996 210.053 70.9274 200.455Z" fill="#E20A16"/>
</mask>
<g mask="url(#mask0_101_7)">
<rect x="-22" y="-26" width="212" height="293" fill="#FA5046"/>
</g>
</svg>
